{
  "title": "O Protetor (2005) 1080p dublado",
  "uid": 11755884,
  "size": 2057737804,
  "categoryP": "video",
  "categoryS": "hd___movies",
  "magnet": "?xt=urn:btih:dfbf0962c873dc8e48633738b61af07efbb694a0&amp;dn=O+Protetor+%282005%29+1080p+dublado&amp;tr=udp%3A%2F%2Ftracker.openbittorrent.com%3A80&amp;tr=udp%3A%2F%2Fopen.demonii.com%3A1337&amp;tr=udp%3A%2F%2Ftracker.coppersurfer.tk%3A6969&amp;tr=udp%3A%2F%2Fexodus.desync.com%3A6969",
  "seeders": 99,
  "leechers": 14,
  "uploader": "lindo2002",
  "files": 1,
  "time": 1426375326,
  "description": "General\n\n      Format : MPEG-4\n      Format profile : Base Media\n      Codec ID : isom\n      File size : 1.92 GiB\n      Duration : 1h 32mn\n      Overall bit rate : 2 969 Kbps\n\n   \nVideo #1\n      ID : 1\n      Format : AVC\n      Format/Info : Advanced Video Codec\n      Format profile : &lt;a class=&quot;__cf_email__&quot; href=&quot;/cdn-cgi/l/email-protection&quot; data-cfemail=&quot;551d3c323d1519617b65&quot;&gt;[email&amp;#160;protected]&lt;/a&gt;&lt;script cf-hash='f9e31' type=&quot;text/javascript&quot;&gt;\n/* &lt;![CDATA[ */!function(){try{var t=&quot;currentScript&quot;in document?document.currentScript:function(){for(var t=document.getElementsByTagName(&quot;script&quot;),e=t.length;e--;)if(t[e].getAttribute(&quot;cf-hash&quot;))return t[e]}();if(t&amp;&amp;t.previousSibling){var e,r,n,i,c=t.previousSibling,a=c.getAttribute(&quot;data-cfemail&quot;);if(a){for(e=&quot;&quot;,r=parseInt(a.substr(0,2),16),n=2;a.length-n;n+=2)i=parseInt(a.substr(n,2),16)^r,e+=String.fromCharCode(i);e=document.createTextNode(e),c.parentNode.replaceChild(e,c)}}}catch(u){}}();/* ]]&gt; */&lt;/script&gt;\n      Format settings, CABAC : Yes\n      Format settings, ReFrames : 3 frames\n      Codec ID : avc1\n      Codec ID/Info : Advanced Video Coding\n      Duration : 1h 32mn\n      Bit rate : 2 839 Kbps\n      Width : 1 920 pixels\n      Height : 1 080 pixels\n      Display aspect ratio : 16:9\n      Frame rate mode : Variable\n      Frame rate : 23.784 fps\n      Minimum frame rate : 12.000 fps\n      Maximum frame rate : 24.000 fps\n      Color space : YUV\n      Chroma subsampling : 4:2:0\n      Bit depth : 8 bits\n      Scan type : Progressive\n      Bits/(Pixel*Frame) : 0.058\n      Stream size : 1.83 GiB (96%)\n      \n   Audio #2\n      ID : 2\n      Format : AAC\n      Format/Info : Advanced Audio Codec\n      Format profile : LC\n      Codec ID : 40\n      Duration : 1h 32mn\n      Bit rate mode : Constant\n      Bit rate : 128 Kbps\n      Channel(s) : 2 channels\n      Channel positions : Front: L R\n      Sampling rate : 48.0 KHz\n      Compression mode : Lossy\n      Stream size : 84.6 MiB (4%)",
  "parsed": {
    "xt": "urn:btih:dfbf0962c873dc8e48633738b61af07efbb694a0",
    "dn": "O Protetor (2005) 1080p dublado",
    "tr": [
      "udp://exodus.desync.com:6969",
      "udp://open.demonii.com:1337",
      "udp://tracker.coppersurfer.tk:6969",
      "udp://tracker.openbittorrent.com:80"
    ],
    "infoHash": "dfbf0962c873dc8e48633738b61af07efbb694a0",
    "infoHashBuffer": {
      "type": "Buffer",
      "data": [
        223,
        191,
        9,
        98,
        200,
        115,
        220,
        142,
        72,
        99,
        55,
        56,
        182,
        26,
        240,
        126,
        251,
        182,
        148,
        160
      ]
    },
    "name": "O Protetor (2005) 1080p dublado",
    "announce": [
      "udp://exodus.desync.com:6969",
      "udp://open.demonii.com:1337",
      "udp://tracker.coppersurfer.tk:6969",
      "udp://tracker.openbittorrent.com:80"
    ],
    "urlList": []
  },
  "previous": 51,
  "peers": 113,
  "last_updated": "2016-12-27T15:14:40.136Z"
}